<svg preserveAspectRatio="none" width="100%" height="100%" overflow="visible" style="display: block;" viewBox="0 0 16 16" fill="none" xmlns="http://www.w3.org/2000/svg">
<g id="material-symbols:article-rounded">
<path id="Vector" d="M3.33333 14C2.96667 14 2.65289 13.8696 2.392 13.6087C2.13111 13.3478 2.00044 13.0338 2 12.6667V3.33333C2 2.96667 2.13067 2.65289 2.392 2.392C2.65333 2.13111 2.96711 2.00044 3.33333 2H12.6667C13.0333 2 13.3473 2.13067 13.6087 2.392C13.87 2.65333 14.0004 2.96711 14 3.33333V12.6667C14 13.0333 13.8696 13.3473 13.6087 13.6087C13.3478 13.87 13.0338 14.0004 12.6667 14H3.33333ZM5.33333 11.3333H8.66667C8.85556 11.3333 9.014 11.2693 9.142 11.1413C9.27 11.0133 9.33378 10.8551 9.33333 10.6667C9.33289 10.4782 9.26889 10.32 9.14133 10.192C9.01378 10.064 8.85556 10 8.66667 10H5.33333C5.14444 10 4.98622 10.064 4.85867 10.192C4.73111 10.32 4.66711 10.4782 4.66667 10.6667C4.66622 10.8551 4.73022 11.0136 4.85867 11.142C4.98711 11.2704 5.14533 11.3342 5.33333 11.3333ZM5.33333 8.66667H10.6667C10.8556 8.66667 11.014 8.60267 11.142 8.47467C11.27 8.34667 11.3338 8.18844 11.3333 8C11.3329 7.81156 11.2689 7.65333 11.1413 7.52533C11.0138 7.39733 10.8556 7.33333 10.6667 7.33333H5.33333C5.14444 7.33333 4.98622 7.39733 4.85867 7.52533C4.73111 7.65333 4.66711 7.81156 4.66667 8C4.66622 8.18844 4.73022 8.34689 4.85867 8.47533C4.98711 8.60378 5.14533 8.66756 5.33333 8.66667ZM5.33333 6H10.6667C10.8556 6 11.014 5.936 11.142 5.808C11.27 5.68 11.3338 5.52178 11.3333 5.33333C11.3329 5.14489 11.2689 4.98667 11.1413 4.85867C11.0138 4.73067 10.8556 4.66667 10.6667 4.66667H5.33333C5.14444 4.66667 4.98622 4.73067 4.85867 4.85867C4.73111 4.98667 4.66711 5.14489 4.66667 5.33333C4.66622 5.52178 4.73022 5.68022 4.85867 5.80867C4.98711 5.93711 5.14533 6.00089 5.33333 6Z" fill="var(--fill-0, #041A52)"/>
</g>
</svg>
