<svg width="16" height="16" viewBox="0 0 16 16" fill="none" xmlns="http://www.w3.org/2000/svg">
<path d="M1.33337 13.3327V10.1994C1.33337 9.93268 1.4056 9.69091 1.55004 9.47402C1.69449 9.25713 1.88893 9.09335 2.13337 8.98268L4.00004 8.14935V6.81602C4.00004 6.56046 4.06671 6.33002 4.20004 6.12468C4.33337 5.91935 4.51115 5.75535 4.73337 5.63268L7.33337 4.33268V3.33268H6.66671C6.47782 3.33268 6.3196 3.26868 6.19204 3.14068C6.06448 3.01268 6.00048 2.85446 6.00004 2.66602C5.9996 2.47757 6.0636 2.31935 6.19204 2.19135C6.32048 2.06335 6.47871 1.99935 6.66671 1.99935H7.33337V1.33268C7.33337 1.1438 7.39737 0.985573 7.52537 0.858018C7.65337 0.730462 7.8116 0.666462 8.00004 0.666018C8.18848 0.665573 8.34693 0.729573 8.47537 0.858018C8.60382 0.986462 8.6676 1.14468 8.66671 1.33268V1.99935H9.33337C9.52226 1.99935 9.68071 2.06335 9.80871 2.19135C9.93671 2.31935 10.0005 2.47757 10 2.66602C9.9996 2.85446 9.9356 3.01291 9.80804 3.14135C9.68048 3.2698 9.52226 3.33357 9.33337 3.33268H8.66671V4.33268L11.2667 5.63268C11.4889 5.75491 11.6667 5.91891 11.8 6.12468C11.9334 6.33046 12 6.56091 12 6.81602V8.14935L13.8667 8.98268C14.1112 9.0938 14.3056 9.2578 14.45 9.47468C14.5945 9.69157 14.6667 9.93313 14.6667 10.1994V13.3327C14.6667 13.6994 14.5363 14.0134 14.2754 14.2747C14.0145 14.536 13.7005 14.6665 13.3334 14.666H10C9.81115 14.666 9.65293 14.602 9.52537 14.474C9.39782 14.346 9.33382 14.1878 9.33337 13.9994V12.666C9.33337 12.2994 9.20293 11.9856 8.94204 11.7247C8.68115 11.4638 8.36715 11.3331 8.00004 11.3327C7.63293 11.3322 7.31915 11.4629 7.05871 11.7247C6.79826 11.9865 6.6676 12.3002 6.66671 12.666V13.9994C6.66671 14.1882 6.60271 14.3467 6.47471 14.4747C6.34671 14.6027 6.18848 14.6665 6.00004 14.666H2.66671C2.30004 14.666 1.98626 14.5356 1.72537 14.2747C1.46449 14.0138 1.33382 13.6998 1.33337 13.3327ZM8.70871 8.70802C8.90293 8.51335 9.00004 8.27713 9.00004 7.99935C9.00004 7.72157 8.90293 7.48557 8.70871 7.29135C8.51448 7.09713 8.27826 6.9998 8.00004 6.99935C7.72182 6.99891 7.48582 7.09624 7.29204 7.29135C7.09826 7.48646 7.00093 7.72246 7.00004 7.99935C6.99915 8.27624 7.09648 8.51246 7.29204 8.70802C7.4876 8.90357 7.7236 9.00068 8.00004 8.99935C8.27648 8.99802 8.51271 8.90091 8.70871 8.70802Z" fill="#EAEAEA"/>
</svg>
