<svg width="24" height="24" viewBox="0 0 24 24" fill="none" xmlns="http://www.w3.org/2000/svg">
<foreignObject x="-54.3656" y="-54.3656" width="132.731" height="132.731"><div xmlns="http://www.w3.org/1999/xhtml" style="backdrop-filter:blur(27.18px);clip-path:url(#bgblur_0_220_4355_clip_path);height:100%;width:100%"></div></foreignObject><path data-figma-bg-blur-radius="54.3656" fill-rule="evenodd" clip-rule="evenodd" d="M12 24C18.6274 24 24 18.6274 24 12C24 5.37258 18.6274 0 12 0C5.37258 0 0 5.37258 0 12C0 18.6274 5.37258 24 12 24Z" fill="white"/>
<path d="M7.18499 7.18528C7.34319 7.02727 7.55765 6.93852 7.78124 6.93852C8.00483 6.93852 8.21929 7.02727 8.37749 7.18528L12 10.8078L15.6225 7.18528C15.7256 7.07421 15.8568 6.99302 16.0022 6.95025C16.1476 6.90749 16.3019 6.90473 16.4487 6.94228C16.5955 6.97982 16.7295 7.05628 16.8366 7.16359C16.9436 7.2709 17.0197 7.40509 17.0569 7.55203C17.0945 7.6987 17.0918 7.8528 17.0493 7.9981C17.0067 8.14341 16.9258 8.27457 16.815 8.37778L13.1925 12.0003L16.815 15.6228C16.9261 15.7259 17.0072 15.8571 17.05 16.0025C17.0928 16.1479 17.0955 16.3021 17.058 16.449C17.0204 16.5958 16.944 16.7298 16.8367 16.8369C16.7294 16.9439 16.5952 17.02 16.4482 17.0572C16.3016 17.0947 16.1475 17.0921 16.0022 17.0496C15.8569 17.007 15.7257 16.9261 15.6225 16.8153L12 13.1928L8.37749 16.8153C8.21745 16.9642 8.00589 17.0454 7.78728 17.0416C7.56867 17.0378 7.36004 16.9494 7.20524 16.795C7.05084 16.6402 6.96247 16.4316 6.95869 16.213C6.95491 15.9944 7.03603 15.7828 7.18499 15.6228L10.8075 12.0003L7.18499 8.37778C7.02698 8.21958 6.93823 8.00512 6.93823 7.78153C6.93823 7.55793 7.02698 7.34348 7.18499 7.18528Z" fill="black"/>
<defs>
<clipPath id="bgblur_0_220_4355_clip_path" transform="translate(54.3656 54.3656)"><path fill-rule="evenodd" clip-rule="evenodd" d="M12 24C18.6274 24 24 18.6274 24 12C24 5.37258 18.6274 0 12 0C5.37258 0 0 5.37258 0 12C0 18.6274 5.37258 24 12 24Z"/>
</clipPath></defs>
</svg>
