<svg preserveAspectRatio="none" width="100%" height="100%" overflow="visible" style="display: block;" viewBox="0 0 13.3333 13.8763" fill="none" xmlns="http://www.w3.org/2000/svg">
<g id="Group">
<g id="Vector">
</g>
<path id="Vector_2" fill-rule="evenodd" clip-rule="evenodd" d="M1.33333 0C0.979711 0 0.640573 0.140476 0.390524 0.390524C0.140476 0.640573 0 0.979711 0 1.33333V10.6667C0 11.0203 0.140476 11.3594 0.390524 11.6095C0.640573 11.8595 0.979711 12 1.33333 12H12C12.3536 12 12.6928 11.8595 12.9428 11.6095C13.1929 11.3594 13.3333 11.0203 13.3333 10.6667V1.33333C13.3333 0.979711 13.1929 0.640573 12.9428 0.390524C12.6928 0.140476 12.3536 0 12 0H1.33333ZM4.41667 3.75333C4.43146 3.62588 4.47584 3.50364 4.54626 3.39639C4.61668 3.28913 4.7112 3.19981 4.82227 3.13557C4.93334 3.07132 5.05788 3.03393 5.18597 3.02636C5.31406 3.0188 5.44214 3.04127 5.56 3.092C5.896 3.236 6.60533 3.56 7.504 4.07867C8.13557 4.43962 8.7455 4.83719 9.33067 5.26933C9.43355 5.34589 9.51711 5.44544 9.57468 5.56003C9.63225 5.67463 9.66223 5.80109 9.66223 5.92933C9.66223 6.05758 9.63225 6.18404 9.57468 6.29864C9.51711 6.41323 9.43355 6.51278 9.33067 6.58933C8.74546 7.02102 8.13553 7.41814 7.504 7.77867C6.87581 8.1456 6.2267 8.4755 5.56 8.76667C5.44215 8.81754 5.31404 8.84013 5.1859 8.83263C5.05776 8.82514 4.93315 8.78776 4.82204 8.72349C4.71093 8.65922 4.6164 8.56984 4.54601 8.46251C4.47562 8.35517 4.43133 8.23285 4.41667 8.10533C4.33668 7.38278 4.2975 6.6563 4.29933 5.92933C4.29933 4.89533 4.374 4.11667 4.41667 3.75333Z" fill="var(--fill-0, #041A52)"/>
</g>
</svg>
